<svg height="512" viewBox="0 0 128 128" width="512" xmlns="http://www.w3.org/2000/svg"><g><path d="m78.25 57.105v-29.071h1.625a1.75 1.75 0 0 0 1.75-1.75v-6a1.75 1.75 0 0 0 -1.75-1.75h-2.855l1.711-8.046a4.749 4.749 0 0 0 -4.641-5.738h-20.18a4.749 4.749 0 0 0 -4.642 5.734l1.712 8.05h-2.855a1.75 1.75 0 0 0 -1.75 1.75v6a1.75 1.75 0 0 0 1.75 1.75h1.625v29.071c-15.404 6.305-27.31 22.712-27.31 37.895 0 17.425 15.925 28.25 41.56 28.25s41.56-10.825 41.56-28.25c0-15.183-11.906-31.59-27.31-37.895zm-25.559-47.353a1.216 1.216 0 0 1 .25-1.036 1.241 1.241 0 0 1 .969-.466h20.18a1.241 1.241 0 0 1 .969.466 1.218 1.218 0 0 1 .249 1.04l-1.866 8.778h-18.884zm-2.816 12.282h28.25v2.5h-1.586c-.013 0-.026 0-.039 0s-.026 0-.039 0h-24.922c-.013 0-.026 0-.039 0s-.026 0-.039 0h-1.586zm14.125 97.716c-18.4 0-38.06-6.5-38.06-24.75 0-14.191 11.5-29.592 26.171-35.061a1.748 1.748 0 0 0 1.139-1.639v-30.266h21.5v30.266a1.748 1.748 0 0 0 1.139 1.639c14.675 5.469 26.171 20.87 26.171 35.061 0 18.248-19.66 24.75-38.06 24.75z"/><path d="m97.006 83.368a39.6 39.6 0 0 0 -7.449-11.234 1.75 1.75 0 0 0 -2.557 2.394 36.1 36.1 0 0 1 6.789 10.227 1.75 1.75 0 0 0 3.213-1.387z"/></g></svg>